<svg width="64" height="64" viewBox="0 0 64 64" fill="none" xmlns="http://www.w3.org/2000/svg">
<path d="M42 60H22C19.3478 60 16.8043 58.9464 14.9289 57.0711C13.0536 55.1957 12 52.6522 12 50V48C12 43.2261 13.8964 38.6477 17.2721 35.2721C20.6477 31.8964 25.2261 30 30 30H34C38.7739 30 43.3523 31.8964 46.7279 35.2721C50.1036 38.6477 52 43.2261 52 48V50C52 52.6522 50.9464 55.1957 49.0711 57.0711C47.1957 58.9464 44.6522 60 42 60ZM30 34C26.287 34 22.726 35.475 20.1005 38.1005C17.475 40.726 16 44.287 16 48V50C16 51.5913 16.6321 53.1174 17.7574 54.2426C18.8826 55.3679 20.4087 56 22 56H42C43.5913 56 45.1174 55.3679 46.2426 54.2426C47.3679 53.1174 48 51.5913 48 50V48C48 44.287 46.525 40.726 43.8995 38.1005C41.274 35.475 37.713 34 34 34H30Z" fill="white"/>
<path d="M32 28C29.6266 28 27.3066 27.2962 25.3332 25.9776C23.3598 24.6591 21.8217 22.7849 20.9135 20.5922C20.0052 18.3995 19.7676 15.9867 20.2306 13.6589C20.6936 11.3312 21.8365 9.19296 23.5147 7.51472C25.193 5.83649 27.3311 4.6936 29.6589 4.23058C31.9867 3.76756 34.3995 4.0052 36.5922 4.91345C38.7849 5.8217 40.6591 7.35977 41.9776 9.33316C43.2962 11.3066 44 13.6266 44 16C44 19.1826 42.7357 22.2349 40.4853 24.4853C38.2348 26.7357 35.1826 28 32 28ZM32 8.00001C30.4178 8.00001 28.871 8.4692 27.5554 9.34825C26.2399 10.2273 25.2145 11.4767 24.609 12.9385C24.0035 14.4003 23.845 16.0089 24.1537 17.5607C24.4624 19.1126 25.2243 20.538 26.3431 21.6569C27.462 22.7757 28.8874 23.5376 30.4393 23.8463C31.9911 24.155 33.5997 23.9965 35.0615 23.391C36.5233 22.7855 37.7727 21.7602 38.6518 20.4446C39.5308 19.129 40 17.5823 40 16C40 13.8783 39.1571 11.8434 37.6569 10.3432C36.1566 8.84286 34.1217 8.00001 32 8.00001Z" fill="white"/>
</svg>
