<svg width="148" height="46" viewBox="0 0 148 46" fill="none" xmlns="http://www.w3.org/2000/svg">
<path d="M10 45.4H7.50003L9.00003 43.3C10.1 41.7 10.9 39.8 11.3 37.3C4.20002 34.1 0.400024 28.1 0.400024 20.2C0.400024 8.09998 9.50004 0.599976 24.2 0.599976C38.9 0.599976 48 8.09998 48 20.2C48 32.4 39.1 39.8 24.2 39.8C23.9 39.8 23.5 39.8 23.2 39.8C20.8 42.4 16.8 45.4 10 45.4ZM24 3.19998C10.7 3.19998 2.80002 9.49998 2.80002 20.2C2.80002 29.3 8.40003 33.4 13 35.3L13.9 35.7L13.8 36.7C13.5 39 13 41 12.2 42.7C17 42.1 19.8 39.7 21.3 37.7L21.7 37.2H22.6C23 37.2 23.5 37.2 23.9 37.2C43 37.2 45.1 25.3 45.1 20.2C45.2 9.59998 37.3 3.19998 24 3.19998Z" fill="white"/>
<path d="M24.9385 28.2256C23.3701 28.2256 22.0596 27.8818 21.0068 27.1943C19.9613 26.5068 19.1735 25.5651 18.6436 24.3691C18.1208 23.1732 17.8594 21.8161 17.8594 20.2979V20.0723C17.8594 18.5397 18.1351 17.179 18.6865 15.9902C19.238 14.7943 20.0293 13.8525 21.0605 13.165C22.0918 12.4775 23.3236 12.1338 24.7559 12.1338C25.7656 12.1338 26.6895 12.2913 27.5273 12.6064C28.3652 12.9215 29.0599 13.3226 29.6113 13.8096V17.1826H27.9248L27.6992 14.7119C26.9759 14.1605 25.9912 13.8848 24.7451 13.8848C23.721 13.8848 22.8545 14.1497 22.1455 14.6797C21.4365 15.2025 20.8994 15.9258 20.5342 16.8496C20.1689 17.7734 19.9863 18.8405 19.9863 20.0508V20.2979C19.9863 22.2673 20.4196 23.7962 21.2861 24.8848C22.1527 25.9661 23.3952 26.5068 25.0137 26.5068C25.515 26.5068 26.0055 26.446 26.4854 26.3242C26.9652 26.2025 27.3626 26.0449 27.6777 25.8516L27.9141 23.6709H29.5684V27.0654C28.9811 27.4307 28.2793 27.7171 27.4629 27.9248C26.6465 28.1253 25.805 28.2256 24.9385 28.2256Z" fill="white"/>
<path d="M65.9385 28.2256C64.3701 28.2256 63.0596 27.8818 62.0068 27.1943C60.9613 26.5068 60.1735 25.5651 59.6436 24.3691C59.1208 23.1732 58.8594 21.8161 58.8594 20.2979V20.0723C58.8594 18.5397 59.1351 17.179 59.6865 15.9902C60.238 14.7943 61.0293 13.8525 62.0605 13.165C63.0918 12.4775 64.3236 12.1338 65.7559 12.1338C66.7656 12.1338 67.6895 12.2913 68.5273 12.6064C69.3652 12.9215 70.0599 13.3226 70.6113 13.8096V17.1826H68.9248L68.6992 14.7119C67.9759 14.1605 66.9912 13.8848 65.7451 13.8848C64.721 13.8848 63.8545 14.1497 63.1455 14.6797C62.4365 15.2025 61.8994 15.9258 61.5342 16.8496C61.1689 17.7734 60.9863 18.8405 60.9863 20.0508V20.2979C60.9863 22.2673 61.4196 23.7962 62.2861 24.8848C63.1527 25.9661 64.3952 26.5068 66.0137 26.5068C66.515 26.5068 67.0055 26.446 67.4854 26.3242C67.9652 26.2025 68.3626 26.0449 68.6777 25.8516L68.9141 23.6709H70.5684V27.0654C69.9811 27.4307 69.2793 27.7171 68.4629 27.9248C67.6465 28.1253 66.805 28.2256 65.9385 28.2256ZM72.3838 28V26.6465L74.1348 26.3457V12.9072L72.3838 12.6064V11.2422H76.251V17.9238C76.652 17.3652 77.1426 16.932 77.7227 16.624C78.3027 16.3161 78.9473 16.1621 79.6562 16.1621C80.9023 16.1621 81.8691 16.5345 82.5566 17.2793C83.2441 18.0241 83.5879 19.1699 83.5879 20.7168V26.3457L85.3389 26.6465V28H79.7207V26.6465L81.4717 26.3457V20.6953C81.4717 18.819 80.6517 17.8809 79.0117 17.8809C78.4316 17.8809 77.9017 18.0205 77.4219 18.2998C76.9492 18.5719 76.5589 18.9443 76.251 19.417V26.3457L78.002 26.6465V28H72.3838ZM90.5488 28.2256C89.3385 28.2256 88.4183 27.932 87.7881 27.3447C87.1579 26.7503 86.8428 25.916 86.8428 24.8418C86.8428 23.7389 87.2939 22.8545 88.1963 22.1885C89.0986 21.5153 90.3519 21.1787 91.9561 21.1787H94.0293V20.04C94.0293 19.3382 93.8145 18.7939 93.3848 18.4072C92.9622 18.0205 92.3643 17.8271 91.5908 17.8271C91.1038 17.8271 90.6813 17.888 90.3232 18.0098C89.9652 18.1243 89.6393 18.2855 89.3457 18.4932L89.1201 20.1152H87.4873V17.4512C88.54 16.5918 89.9186 16.1621 91.623 16.1621C93.0339 16.1621 94.1403 16.4987 94.9424 17.1719C95.7445 17.8451 96.1455 18.8083 96.1455 20.0615V25.6582C96.1455 25.8086 96.1455 25.9554 96.1455 26.0986C96.1527 26.2419 96.1634 26.3851 96.1777 26.5283L97.3057 26.6465V28H94.2656C94.1439 27.4128 94.0687 26.8792 94.04 26.3994C93.6318 26.9222 93.1198 27.359 92.5039 27.71C91.8952 28.0537 91.2435 28.2256 90.5488 28.2256ZM90.8604 26.4531C91.5622 26.4531 92.2031 26.2848 92.7832 25.9482C93.3633 25.6117 93.7786 25.207 94.0293 24.7344V22.6289H91.8809C90.9069 22.6289 90.1764 22.8617 89.6895 23.3271C89.2025 23.7926 88.959 24.3118 88.959 24.8848C88.959 25.9303 89.5928 26.4531 90.8604 26.4531ZM103.053 28.1826C102.193 28.1826 101.509 27.932 101.001 27.4307C100.5 26.9222 100.249 26.113 100.249 25.0029V17.9453H98.4121V16.377H100.249V13.5732H102.365V16.377H104.89V17.9453H102.365V25.0029C102.365 25.5615 102.476 25.9733 102.698 26.2383C102.92 26.5033 103.217 26.6357 103.59 26.6357C103.84 26.6357 104.12 26.6143 104.428 26.5713C104.736 26.5212 104.976 26.4782 105.147 26.4424L105.438 27.8281C105.13 27.9212 104.75 28.0036 104.299 28.0752C103.855 28.1468 103.439 28.1826 103.053 28.1826ZM106.716 28V26.6465L108.467 26.3457V18.042L106.716 17.7412V16.377H110.583V26.3457L112.334 26.6465V28H106.716ZM108.359 13.5088V11.2422H110.583V13.5088H108.359ZM118.908 28.2256C117.648 28.2256 116.663 27.821 115.954 27.0117C115.245 26.2025 114.891 24.9421 114.891 23.2305V18.042L113.559 17.7412V16.377H117.007V23.252C117.007 24.4909 117.189 25.3431 117.555 25.8086C117.92 26.2741 118.489 26.5068 119.263 26.5068C120.015 26.5068 120.634 26.3564 121.121 26.0557C121.615 25.7477 121.988 25.3145 122.238 24.7559V18.042L120.681 17.7412V16.377H124.354V26.3457L125.687 26.6465V28H122.453L122.313 26.2812C121.948 26.9043 121.476 27.3841 120.896 27.7207C120.323 28.0573 119.66 28.2256 118.908 28.2256ZM127.18 28V26.6465L128.931 26.3457V18.042L127.18 17.7412V16.377H130.832L130.972 17.8916C131.344 17.3402 131.824 16.9141 132.411 16.6133C132.998 16.3125 133.679 16.1621 134.452 16.1621C135.226 16.1621 135.888 16.3411 136.439 16.6992C136.998 17.0573 137.417 17.5944 137.696 18.3105C138.062 17.6517 138.545 17.1289 139.146 16.7422C139.748 16.3555 140.45 16.1621 141.252 16.1621C142.441 16.1621 143.379 16.5703 144.066 17.3867C144.754 18.196 145.098 19.417 145.098 21.0498V26.3457L146.849 26.6465V28H141.22V26.6465L142.971 26.3457V21.0283C142.971 19.8825 142.774 19.0732 142.38 18.6006C141.986 18.1208 141.402 17.8809 140.629 17.8809C139.891 17.8809 139.297 18.1423 138.846 18.665C138.402 19.1807 138.144 19.8324 138.072 20.6201V26.3457L139.823 26.6465V28H134.205V26.6465L135.956 26.3457V21.0283C135.956 19.9398 135.752 19.1449 135.344 18.6436C134.943 18.1351 134.359 17.8809 133.593 17.8809C132.948 17.8809 132.418 18.0133 132.003 18.2783C131.588 18.5433 131.269 18.9157 131.047 19.3955V26.3457L132.798 26.6465V28H127.18Z" fill="white"/>
</svg>
